<?xml version="1.0" standalone="no"?>
<!DOCTYPE svg PUBLIC "-//W3C//DTD SVG 20010904//EN"
 "http://www.w3.org/TR/2001/REC-SVG-20010904/DTD/svg10.dtd">
<svg version="1.0" xmlns="http://www.w3.org/2000/svg"
 width="1080.000000pt" height="1080.000000pt" viewBox="0 0 1080.000000 1080.000000"
 preserveAspectRatio="xMidYMid meet">

<g transform="translate(0.000000,1080.000000) scale(0.100000,-0.100000)"
fill="#000000" stroke="none">
<path d="M5986 10128 c-3 -34 -9 -96 -12 -135 -4 -40 -10 -73 -14 -73 -4 0
-15 9 -26 21 -36 40 -72 51 -168 51 -73 1 -100 -4 -131 -20 -110 -56 -174
-201 -146 -329 16 -72 41 -114 94 -156 88 -71 203 -88 290 -43 l47 23 0 -21
c0 -19 10 -25 71 -39 40 -10 73 -16 74 -15 5 7 36 274 41 359 3 52 9 112 15
134 13 58 30 278 21 286 -4 4 -39 10 -78 14 l-71 7 -7 -64z m-133 -272 c18 -7
45 -28 60 -45 24 -29 27 -41 27 -102 0 -67 -1 -71 -41 -114 -40 -43 -44 -45
-98 -45 -117 0 -181 88 -147 204 29 97 110 140 199 102z"/>
<path d="M4445 10076 c-22 -8 -76 -24 -120 -36 -44 -12 -98 -28 -120 -35 -22
-7 -71 -21 -108 -30 -38 -10 -71 -23 -73 -30 -3 -6 7 -51 21 -98 32 -112 70
-242 96 -337 11 -41 24 -84 29 -95 5 -11 14 -45 20 -76 6 -31 17 -65 24 -75
15 -19 28 -18 156 21 63 19 142 41 285 79 55 15 101 29 104 31 7 8 -20 114
-30 121 -6 3 -40 -3 -77 -15 -119 -36 -281 -81 -295 -81 -8 0 -18 10 -24 23
-14 29 -37 136 -32 141 5 6 158 51 249 74 44 12 66 22 68 34 5 24 -37 110 -51
105 -7 -2 -48 -14 -92 -27 -44 -12 -109 -31 -144 -42 -36 -10 -68 -15 -72 -11
-12 13 -48 153 -40 157 4 3 34 11 66 20 33 8 94 24 135 36 41 12 94 26 118 32
35 8 42 14 42 34 0 14 -7 40 -14 59 -13 30 -20 35 -48 35 -18 -1 -51 -7 -73
-14z"/>
<path d="M5085 10000 c-11 -5 -32 -11 -47 -14 -15 -4 -43 -20 -61 -36 -37 -32
-47 -30 -47 7 0 21 -4 23 -59 23 -90 0 -89 3 -74 -196 6 -93 17 -199 22 -236
6 -37 11 -81 11 -97 l0 -31 80 0 c46 0 80 4 80 10 0 5 -7 73 -16 150 -9 77
-13 155 -10 173 15 80 105 132 183 106 56 -18 74 -73 87 -254 l11 -150 75 0
75 0 -2 105 c-1 102 -16 237 -34 311 -10 42 -72 107 -108 115 -15 3 -34 9 -43
15 -22 11 -96 11 -123 -1z"/>
<path d="M6964 9818 c-17 -35 -88 -176 -158 -315 -70 -138 -126 -259 -124
-268 1 -9 35 -32 73 -52 39 -19 77 -39 85 -43 54 -31 183 -91 224 -104 226
-73 466 99 470 338 0 39 -3 88 -7 108 -11 54 -78 147 -139 194 -48 37 -363
204 -385 204 -5 0 -23 -28 -39 -62z m341 -256 c47 -46 65 -87 65 -149 0 -73
-16 -116 -62 -168 -51 -58 -89 -75 -165 -75 -48 0 -75 8 -152 44 -51 25 -98
49 -104 55 -6 6 17 62 67 163 43 84 82 157 87 163 5 5 9 15 9 22 0 8 10 27 21
43 l22 28 87 -45 c48 -24 104 -61 125 -81z"/>
<path d="M3633 9735 c-57 -26 -66 -46 -39 -88 30 -48 29 -65 -6 -83 -18 -9
-35 -18 -37 -20 -2 -2 7 -27 19 -57 l23 -55 33 14 c18 8 37 14 42 14 9 0 30
-39 87 -164 65 -144 138 -187 257 -152 55 16 122 59 133 85 6 16 -51 81 -71
81 -6 0 -17 -7 -24 -15 -21 -25 -78 -30 -102 -9 -21 20 -101 178 -113 226 -6
25 -3 29 42 49 75 35 75 35 50 85 -24 51 -40 54 -104 23 -47 -23 -73 -20 -73
8 0 25 -37 83 -52 83 -7 0 -37 -11 -65 -25z"/>
<path d="M6185 9506 c-54 -54 -36 -137 36 -164 32 -12 40 -12 75 5 44 21 61
60 50 117 -12 65 -112 91 -161 42z"/>
<path d="M3274 9401 c-62 -28 -119 -85 -138 -136 -18 -47 -30 -56 -40 -30 -8
22 -31 19 -81 -10 -44 -27 -60 -48 -49 -68 22 -40 296 -447 300 -447 3 0 32
19 65 41 68 48 70 32 -27 180 -83 129 -97 157 -97 200 0 39 20 73 62 105 34
25 111 26 139 1 11 -10 60 -79 109 -153 48 -74 93 -134 99 -134 25 0 125 73
119 88 -18 47 -204 308 -242 339 -38 32 -51 36 -111 40 -52 3 -76 -1 -108 -16z"/>
<path d="M7615 9181 c-63 -30 -97 -61 -134 -124 -20 -32 -23 -50 -22 -137 1
-115 7 -131 78 -206 78 -82 161 -124 248 -124 l37 0 -7 48 c-8 56 -25 77 -68
86 -79 16 -157 102 -157 173 0 80 13 74 207 -84 150 -121 144 -118 175 -85 48
51 62 90 62 182 0 76 -3 92 -27 132 -57 98 -174 168 -280 168 -37 0 -70 -9
-112 -29z m241 -144 c46 -42 48 -46 48 -100 1 -31 -4 -61 -10 -67 -11 -11 -70
32 -194 138 l-35 30 25 21 c17 14 39 20 72 21 41 0 52 -5 94 -43z"/>
<path d="M2730 8952 c-60 -22 -148 -86 -162 -117 -6 -14 -14 -25 -18 -25 -4 0
-17 -22 -29 -49 -29 -69 -29 -174 1 -233 63 -126 187 -190 315 -164 32 7 72
20 88 28 38 20 145 127 145 145 0 8 8 26 17 40 13 20 18 47 17 102 0 93 -18
135 -89 205 -81 82 -182 105 -285 68z m155 -166 c92 -70 98 -179 15 -250 -61
-51 -124 -47 -192 14 -59 52 -76 105 -53 169 17 48 49 85 80 94 45 13 114 0
150 -27z"/>
<path d="M8142 8783 c-44 -21 -80 -66 -88 -109 -7 -38 10 -107 33 -135 7 -8
13 -19 13 -23 0 -4 16 -30 35 -59 38 -57 45 -101 18 -115 -26 -14 -53 0 -100
51 -42 46 -93 134 -93 162 0 19 -2 19 -67 -2 -29 -10 -53 -24 -53 -30 0 -31
63 -143 111 -196 75 -84 129 -118 198 -124 51 -5 61 -2 102 25 33 23 49 42 59
71 17 54 4 100 -59 206 -57 95 -61 105 -49 128 24 48 114 -2 165 -92 45 -79
48 -81 96 -67 53 15 57 37 21 106 -41 78 -116 154 -186 189 -69 35 -108 38
-156 14z"/>
<path d="M2285 8518 c-14 -30 -25 -72 -25 -95 0 -41 -11 -55 -25 -33 -14 22
-43 8 -73 -35 -18 -25 -32 -53 -32 -63 1 -10 55 -57 136 -117 75 -55 155 -116
179 -136 64 -53 113 -82 127 -73 15 9 45 45 71 84 l17 27 -107 81 c-60 45
-118 91 -130 101 -49 42 -56 122 -18 189 l24 42 -50 40 c-28 22 -55 40 -60 40
-6 0 -21 -24 -34 -52z"/>
<path d="M8566 8326 c-33 -56 -32 -62 2 -80 37 -20 99 -85 111 -119 16 -43 13
-92 -7 -118 -26 -31 -42 -22 -96 60 -105 157 -199 197 -295 124 -59 -46 -73
-108 -45 -202 19 -64 93 -145 142 -156 38 -8 39 -11 11 -34 l-22 -17 38 -57
c39 -59 54 -67 75 -42 7 8 17 15 22 15 5 0 28 14 51 30 23 17 80 56 127 86 98
65 111 76 139 132 41 80 19 184 -61 287 -36 47 -140 135 -158 135 -4 0 -20
-20 -34 -44z m-82 -286 c20 -23 44 -57 54 -76 16 -36 16 -36 -8 -56 -53 -43
-147 3 -172 84 -15 51 8 88 56 88 27 0 41 -8 70 -40z"/>
<path d="M1840 8198 c-17 -35 -35 -70 -40 -78 -25 -41 -72 -126 -125 -227 -47
-91 -56 -115 -46 -127 7 -8 89 -56 184 -107 95 -52 199 -108 232 -127 168 -92
203 -106 220 -92 22 18 68 109 62 124 -3 6 -48 33 -101 60 -52 27 -101 55
-108 63 -10 12 -4 31 33 101 24 48 59 113 76 144 18 31 33 59 33 61 0 6 -111
69 -114 65 -2 -2 -12 -21 -23 -43 -11 -22 -34 -65 -51 -95 -48 -87 -85 -155
-88 -158 -3 -5 -164 80 -170 90 -5 7 35 88 135 272 18 32 30 65 27 72 -3 7
-28 25 -55 39 l-50 25 -31 -62z"/>
<path d="M8980 7792 c-8 -2 -62 -27 -118 -53 -57 -27 -106 -49 -108 -49 -2 0
-50 -22 -106 -49 -57 -26 -111 -51 -121 -54 -9 -4 -20 -13 -23 -20 -6 -17 47
-137 60 -137 9 0 135 57 178 81 40 21 125 49 151 49 37 0 93 -44 118 -91 l19
-38 52 24 c29 13 57 31 62 39 15 22 -31 83 -88 116 l-49 28 31 16 31 16 -21
47 c-24 57 -47 83 -68 75z"/>
<path d="M9090 7329 c-47 -17 -94 -32 -105 -35 -61 -17 -154 -47 -180 -59 -16
-8 -46 -17 -66 -20 -19 -3 -44 -11 -54 -19 -17 -12 -18 -18 -6 -70 18 -80 35
-86 142 -52 46 15 89 32 96 38 8 6 49 11 92 12 71 1 82 -1 106 -24 14 -13 35
-44 45 -68 15 -34 24 -43 37 -38 9 4 39 14 65 23 26 8 48 21 48 28 0 18 -51
85 -93 122 l-36 31 30 12 c16 7 29 15 29 18 0 22 -45 132 -54 131 -6 0 -49
-14 -96 -30z"/>
<path d="M1581 7231 c-13 -24 -14 -86 -2 -109 4 -9 11 -29 15 -44 6 -26 4 -28
-28 -28 -33 0 -35 -2 -46 -47 -6 -27 -14 -57 -16 -69 -5 -18 1 -23 43 -33 88
-23 187 -51 233 -66 25 -8 54 -15 66 -15 11 0 34 -7 51 -15 17 -8 57 -18 90
-21 l61 -7 12 49 c6 27 14 59 17 71 4 19 -1 24 -48 37 -29 9 -58 16 -66 16
-19 0 -157 46 -192 64 -45 24 -63 67 -59 139 l3 60 -45 12 c-25 7 -53 15 -62
19 -11 5 -20 1 -27 -13z"/>
<path d="M9010 6881 c-42 -13 -107 -58 -133 -93 -43 -56 -62 -117 -61 -193 0
-121 56 -225 153 -286 41 -27 53 -29 135 -29 113 0 154 17 218 89 50 56 78
127 78 200 0 54 -24 145 -50 186 -31 49 -107 113 -149 125 -42 11 -154 12
-191 1z m209 -185 c62 -59 62 -168 0 -220 -28 -24 -41 -29 -104 -41 -43 -8
-100 13 -132 50 -57 66 -52 147 13 207 36 33 53 37 131 34 53 -2 67 -6 92 -30z"/>
<path d="M1602 6723 c-55 -19 -137 -99 -163 -159 -31 -70 -30 -224 2 -288 49
-99 144 -156 259 -156 87 0 141 23 202 86 68 70 92 139 86 252 -5 101 -18 131
-86 199 -76 76 -194 102 -300 66z m170 -162 c66 -28 81 -52 86 -127 l4 -66
-43 -44 c-42 -43 -44 -44 -110 -44 -57 0 -71 4 -107 29 -48 35 -67 84 -58 145
9 54 28 81 74 105 47 25 99 26 154 2z"/>
<path d="M9120 6170 c-135 -3 -246 -7 -248 -8 -2 -1 -2 -35 0 -74 l3 -73 105
-3 c58 -2 232 0 388 3 l283 7 -3 77 -3 76 -140 0 c-77 1 -250 -2 -385 -5z"/>
<path d="M1795 6030 c-49 -4 -207 -15 -350 -24 -143 -9 -266 -18 -272 -21 -14
-5 -7 -123 8 -139 5 -6 66 -9 140 -7 l131 3 -26 -44 c-36 -62 -42 -115 -20
-185 26 -83 70 -141 134 -177 49 -27 64 -30 140 -30 65 0 96 6 133 22 98 44
167 150 167 255 0 55 -32 147 -60 172 -26 24 -27 50 -1 36 10 -6 21 -7 25 -4
3 3 6 39 6 80 l0 73 -32 -2 c-18 -1 -73 -5 -123 -8z m-41 -179 c77 -34 106
-103 80 -189 -15 -45 -23 -56 -58 -74 -92 -47 -203 -19 -237 60 -38 87 -13
153 74 196 61 31 81 32 141 7z"/>
<path d="M8965 5900 c-34 -14 -83 -73 -100 -119 -23 -67 -20 -144 10 -197 23
-41 23 -44 6 -44 -29 0 -39 -20 -43 -84 -3 -58 -3 -59 27 -68 37 -11 383 -23
416 -15 33 8 93 64 114 105 35 70 36 316 1 351 -16 16 -72 9 -101 -13 -18 -13
-18 -15 -2 -58 44 -115 -4 -238 -94 -238 -18 0 -19 7 -16 138 2 135 1 139 -25
179 -14 22 -42 47 -61 56 -37 18 -99 21 -132 7z m88 -151 c33 -18 37 -28 37
-104 0 -99 -6 -115 -42 -115 -39 0 -84 46 -93 94 -9 47 13 107 45 123 30 15
27 15 53 2z"/>
<path d="M1940 5355 c-61 -18 -71 -20 -175 -45 -113 -27 -164 -50 -207 -94
-57 -58 -68 -130 -40 -257 19 -82 94 -199 128 -199 19 0 74 50 74 66 0 9 -14
32 -30 53 -57 70 -67 169 -24 220 42 50 58 42 78 -41 36 -147 79 -216 151
-243 42 -16 47 -16 96 1 92 34 122 102 101 231 -12 70 -46 126 -88 145 -18 9
-21 14 -13 25 6 7 20 13 30 13 21 0 23 9 10 42 -6 13 -12 40 -16 61 -7 41 -10
42 -75 22z m-13 -200 c33 -23 63 -79 63 -116 0 -63 -75 -104 -112 -61 -44 50
-74 174 -45 185 25 11 73 6 94 -8z"/>
<path d="M8904 5260 c-69 -21 -164 -137 -164 -199 0 -12 -5 -31 -11 -42 -7
-13 -7 -30 -1 -52 6 -18 13 -44 16 -59 6 -26 5 -27 -23 -22 -23 5 -30 2 -34
-12 -27 -100 -29 -116 -20 -125 5 -5 72 -27 149 -49 76 -22 162 -46 189 -55
151 -45 189 -55 210 -55 13 0 26 -4 30 -9 3 -5 20 -12 38 -16 17 -4 51 -14 75
-22 23 -9 44 -14 45 -12 10 15 45 144 41 151 -3 4 -12 8 -21 8 -8 0 -64 16
-124 36 l-108 35 38 34 c77 70 104 212 57 310 -49 105 -135 157 -266 161 -47
2 -99 -1 -116 -6z m205 -177 c14 -11 37 -41 50 -66 23 -44 23 -50 10 -89 -30
-92 -98 -131 -194 -109 -61 14 -86 34 -115 91 -19 38 -21 48 -11 81 13 43 54
97 85 110 35 15 145 4 175 -18z"/>
<path d="M2135 4770 c-41 -18 -193 -79 -285 -115 -52 -20 -108 -42 -125 -50
-16 -7 -41 -17 -55 -21 -14 -4 -52 -19 -85 -34 -33 -15 -71 -30 -85 -34 -53
-13 -56 -20 -33 -78 11 -29 24 -61 27 -72 7 -22 30 -18 119 23 34 15 89 38
122 50 33 12 74 28 90 35 17 8 91 37 165 66 74 29 159 63 187 76 l53 24 -25
66 c-14 37 -25 68 -25 70 0 7 -24 3 -45 -6z"/>
<path d="M8679 4591 c-163 -34 -277 -268 -208 -428 63 -149 245 -222 384 -154
66 33 124 93 158 164 36 77 39 203 5 268 -25 49 -88 112 -133 133 -38 18 -155
28 -206 17z m124 -160 c24 -10 58 -36 75 -57 41 -50 44 -112 8 -165 -73 -107
-230 -83 -294 44 l-22 45 27 53 c20 38 40 60 68 76 49 28 80 29 138 4z"/>
<path d="M2070 4456 c-86 -24 -149 -75 -188 -154 -32 -63 -31 -180 3 -256 33
-74 97 -143 162 -172 67 -31 168 -33 231 -4 63 28 144 116 159 171 24 85 25
97 9 160 -35 135 -127 233 -244 258 -63 13 -74 13 -132 -3z m143 -150 c41 -17
81 -62 96 -105 16 -48 -1 -99 -47 -145 -75 -72 -172 -70 -236 6 -30 35 -36 49
-36 88 0 39 6 53 36 88 34 40 100 79 137 81 10 1 32 -5 50 -13z"/>
<path d="M8265 4034 c-19 -26 -35 -52 -35 -59 0 -6 56 -53 124 -104 74 -56
131 -106 141 -125 21 -39 16 -117 -9 -145 -29 -32 -17 -51 66 -105 l28 -18 26
56 c19 41 25 69 22 102 -4 49 -2 51 31 27 23 -16 25 -15 48 13 13 16 32 44 43
62 l19 32 -42 31 c-23 16 -66 46 -95 67 -30 20 -75 53 -100 72 -130 97 -194
140 -212 140 -11 0 -34 -19 -55 -46z"/>
<path d="M2657 3842 c-14 -9 -69 -50 -121 -90 -52 -40 -108 -77 -125 -83 -48
-17 -98 -3 -146 42 l-43 40 -45 -38 c-25 -21 -46 -46 -46 -55 -1 -25 69 -78
104 -78 16 0 37 -4 45 -10 12 -8 12 -11 -3 -28 -20 -22 -22 -46 -4 -64 7 -7
20 -25 30 -40 29 -46 56 -36 167 59 25 21 172 135 233 181 32 24 61 50 64 58
5 15 -34 79 -66 108 -15 14 -19 14 -44 -2z"/>
<path d="M2859 3455 c-152 -154 -207 -175 -288 -110 -24 19 -47 35 -50 35 -14
0 -91 -80 -91 -94 0 -23 78 -68 127 -74 43 -5 59 -26 28 -38 -8 -4 -15 -12
-15 -19 0 -13 98 -110 105 -104 2 2 92 92 200 199 l195 194 -42 44 c-70 71
-64 73 -169 -33z"/>
<path d="M7706 3390 c-68 -52 -72 -59 -57 -88 6 -9 21 -53 35 -97 45 -141 58
-180 66 -200 5 -11 14 -38 21 -60 6 -22 14 -44 18 -50 8 -14 13 -55 7 -55 -5
0 -147 96 -251 169 -27 19 -78 55 -113 79 l-62 44 -66 -47 c-36 -26 -68 -53
-70 -60 -5 -11 25 -114 46 -160 5 -11 13 -36 19 -55 5 -19 35 -107 66 -195 31
-88 61 -174 66 -192 5 -18 14 -35 19 -38 6 -4 10 -18 10 -33 1 -62 29 -65 93
-9 41 36 47 66 23 120 -7 18 -25 68 -39 112 -14 44 -44 133 -67 199 -23 65
-39 120 -37 123 4 4 61 -32 185 -117 21 -14 83 -58 139 -98 56 -40 109 -75
117 -78 8 -3 39 13 71 37 54 41 56 44 50 78 -4 20 -11 41 -15 46 -5 6 -13 29
-19 50 -5 22 -36 119 -69 215 -33 96 -59 176 -57 178 2 2 48 -29 104 -67 55
-39 104 -71 109 -71 5 0 15 -7 22 -16 8 -8 58 -46 113 -84 l100 -69 58 41 c36
25 59 48 59 60 0 11 -20 32 -52 53 -57 37 -132 89 -213 146 -27 20 -88 62
-135 94 -47 32 -113 78 -146 102 -34 23 -66 43 -71 43 -6 0 -40 -23 -77 -50z"/>
<path d="M3112 3326 c-83 -103 -181 -238 -197 -272 -20 -42 -23 -143 -6 -187
13 -33 95 -117 137 -140 85 -47 112 -57 160 -57 l52 0 6 45 c8 50 3 65 -21 65
-62 0 -158 62 -189 122 -12 24 -13 36 -4 64 13 39 37 44 66 13 25 -28 151
-104 196 -118 78 -25 178 39 194 124 20 110 -106 245 -229 245 -43 0 -43 0
-39 31 4 25 -1 36 -29 60 -58 50 -61 50 -97 5z m215 -220 c18 -19 33 -46 33
-58 0 -27 -37 -68 -62 -68 -26 0 -86 33 -132 74 l-40 34 33 32 c30 30 36 32
83 28 43 -5 57 -11 85 -42z"/>
<path d="M3561 2948 c-61 -41 -88 -110 -65 -168 15 -37 40 -63 152 -159 68
-58 76 -81 36 -107 -24 -16 -28 -16 -86 12 -33 16 -77 46 -98 66 -21 21 -43
38 -49 38 -19 0 -81 -51 -81 -66 0 -38 163 -156 233 -168 21 -3 52 -9 71 -12
40 -7 126 18 149 44 9 9 21 39 28 65 18 73 2 114 -73 181 -34 31 -66 56 -72
56 -17 0 -66 60 -66 81 0 26 34 41 76 33 39 -7 146 -83 171 -120 8 -13 21 -24
28 -24 21 0 95 52 95 67 0 25 -107 118 -180 157 -65 35 -85 40 -155 44 -71 3
-84 1 -114 -20z"/>
<path d="M6780 2821 c-91 -28 -220 -135 -220 -182 0 -10 1 -19 3 -19 1 0 25
-8 53 -18 l50 -19 22 33 c50 77 183 108 249 58 18 -14 33 -29 33 -33 0 -8
-159 -81 -174 -81 -3 0 -34 -13 -68 -29 -35 -15 -77 -34 -95 -41 -50 -19 -55
-31 -32 -78 20 -39 90 -115 124 -134 8 -5 41 -16 72 -24 51 -13 63 -13 121 1
177 45 279 191 242 346 -36 149 -136 230 -282 228 -40 0 -84 -4 -98 -8z m240
-306 c0 -20 -9 -53 -19 -74 -35 -68 -146 -91 -211 -43 -52 39 -42 47 150 125
36 14 68 26 73 26 4 1 7 -15 7 -34z"/>
<path d="M4071 2721 c-11 -7 -10 -18 9 -65 21 -49 26 -55 44 -49 40 15 121 7
170 -16 36 -18 52 -34 70 -70 27 -55 24 -85 -7 -75 -152 46 -185 57 -202 65
-11 5 -54 20 -95 33 -84 27 -110 22 -110 -21 0 -15 -5 -41 -12 -59 -9 -25 -9
-42 0 -71 6 -21 14 -51 17 -66 7 -34 102 -128 152 -152 39 -19 172 -26 235
-12 45 9 131 85 158 138 26 50 29 239 5 259 -8 7 -15 18 -15 25 0 20 -83 91
-139 119 -45 23 -62 26 -158 26 -59 0 -114 -4 -122 -9z m96 -309 c12 -7 33
-12 47 -12 14 0 27 -4 30 -9 3 -4 26 -14 51 -21 25 -7 48 -17 52 -23 4 -6 -11
-26 -32 -44 -30 -26 -47 -33 -80 -33 -92 0 -155 51 -155 125 l0 43 33 -7 c18
-5 42 -13 54 -19z"/>
<path d="M6390 2663 c-80 -14 -100 -23 -100 -50 0 -22 -3 -24 -22 -18 -78 23
-104 26 -153 14 -108 -25 -178 -83 -213 -174 -27 -70 -28 -115 -2 -198 38
-122 147 -207 266 -207 57 0 141 34 181 73 18 17 35 28 38 26 3 -3 12 -37 21
-75 9 -38 23 -91 33 -119 18 -55 14 -53 115 -40 46 6 48 8 43 33 -4 15 -10 51
-16 80 -5 29 -14 67 -20 85 -11 35 -37 153 -51 232 -5 28 -18 91 -29 140 -49
218 -43 206 -91 198z m-129 -188 c48 -31 76 -75 85 -134 6 -37 2 -54 -17 -90
-27 -51 -85 -91 -133 -91 -40 0 -91 34 -126 85 -56 82 -32 178 57 231 50 29
85 29 134 -1z"/>
<path d="M4854 2551 c-45 -11 -138 -57 -172 -86 -37 -31 -81 -105 -95 -160
-13 -51 -13 -178 0 -230 32 -133 173 -235 352 -255 47 -5 136 -16 196 -24 61
-7 114 -10 119 -5 11 10 19 59 41 244 8 72 17 141 20 155 3 14 10 72 15 130 6
58 13 126 16 153 6 44 5 47 -17 48 -36 1 -186 18 -254 28 -71 11 -178 12 -221
2z m236 -141 c41 -6 77 -13 79 -15 2 -3 -6 -80 -18 -172 -11 -92 -21 -184 -21
-203 0 -19 -3 -45 -7 -58 -6 -23 -8 -23 -92 -17 -200 16 -291 91 -291 240 0
26 5 66 12 89 12 44 82 126 108 127 8 0 31 6 50 14 37 14 62 14 180 -5z"/>
<path d="M5641 2519 c-54 -53 -36 -136 34 -159 81 -27 152 43 125 124 -23 71
-106 89 -159 35z"/>
</g>
</svg>
